#!OML:ASF F:\VICON\USERDATA\INSTALL\rory3\rory3.ASF
:FULLY-SPECIFIED
:DEGREES
2301
root -1.46032 17.7745 -6.36951 -340.883 -9.99474 362.6
lowerback 17.3521 -0.944022 1.54723
upperback 5.89262 -0.88237 2.61374
thorax -3.39964 -0.458348 2.05931
lowerneck -20.9935 2.48833 -5.89847
upperneck 10.9737 5.14161 -0.761075
head 6.62546 2.14403 1.27782
rclavicle 1.98785e-014 -7.95139e-015
rhumerus -23.6513 27.6122 -90.573
rradius 49.2986
rwrist 37.9406
rhand -13.549 -11.4706
rfingers 7.12502
rthumb 12.564 -41.0728
lclavicle 1.98785e-014 -7.95139e-015
lhumerus -22.7773 -25.5326 97.9537
lradius 37.5685
lwrist -0.673044
lhand -13.9073 28.8228
lfingers 7.12502
lthumb 12.2185 58.4459
rfemur -41.7411 -13.149 14.9762
rtibia 32.6252
rfoot -27.0317 -31.1685
rtoes 26.6567
lfemur -29.7552 9.73821 -21.6582
ltibia 29.2236
lfoot -12.8928 9.53104
ltoes -23.9571
2302
root -1.40006 17.7618 -6.35861 -341.575 -9.15332 362.575
lowerback 17.2308 -0.92551 1.46012
upperback 5.65974 -0.865465 2.61434
thorax -3.5824 -0.448118 2.10661
lowerneck -20.9619 2.34248 -6.09172
upperneck 10.9002 5.0006 -0.798425
head 6.59725 2.06641 1.27865
rclavicle 1.27222e-014 -1.43125e-014
rhumerus -24.0013 28.1328 -90.6253
rradius 48.3905
rwrist 37.6043
rhand -13.371 -11.5418
rfingers 7.12502
rthumb 12.7356 -41.1334
lclavicle 1.27222e-014 -1.43125e-014
lhumerus -22.7699 -26.4042 97.9358
lradius 36.993
lwrist -0.571662
lhand -13.3366 28.5418
lfingers 7.12502
lthumb 12.7687 58.1314
rfemur -40.9838 -13.3608 14.5927
rtibia 33.1643
rfoot -27.6621 -31.3814
rtoes 27.6025
lfemur -29.2779 9.49433 -21.678
ltibia 29.5813
lfoot -13.1411 9.24563
ltoes -24.1039
2303
root -1.34256 17.7474 -6.34423 -342.328 -8.3057 362.502
lowerback 17.1139 -0.898508 1.4106
upperback 5.46823 -0.833566 2.60301
thorax -3.72442 -0.430487 2.11649
lowerneck -21.192 2.2024 -6.20613
upperneck 11.0616 4.86457 -0.777987
head 6.68794 1.9901 1.29422
rclavicle 1.43125e-014 -3.97569e-015
rhumerus -24.2588 28.8331 -90.7045
rradius 47.4593
rwrist 37.0348
rhand -13.5288 -11.6818
rfingers 7.12502
rthumb 12.5834 -41.2829
lclavicle 1.43125e-014 -3.97569e-015
lhumerus -22.6484 -27.2771 97.8378
lradius 36.3843
lwrist -0.65993
lhand -12.5206 28.4389
lfingers 7.12502
lthumb 13.5552 57.9777
rfemur -40.1507 -13.5433 14.2547
rtibia 33.7434
rfoot -27.998 -31.6596
rtoes 28.2809
lfemur -28.6865 9.17612 -21.5979
ltibia 29.9569
lfoot -13.4847 8.97303
ltoes -23.3455
2304
root -1.28816 17.7267 -6.32669 -343.023 -7.51635 362.452
lowerback 16.8145 -0.830791 1.30956
upperback 5.37906 -0.768571 2.54512
thorax -3.66191 -0.397178 2.09437
lowerneck -21.6492 1.9776 -6.36554
upperneck 11.1928 4.62587 -0.640619
head 6.804 1.873 1.34592
rclavicle 1.51076e-014 2.38542e-015
rhumerus -24.182 29.6065 -90.7446
rradius 46.3219
rwrist 36.2196
rhand -13.9246 -12.0078
rfingers 7.12502
rthumb 12.2018 -41.6319
lclavicle 1.51076e-014 2.38542e-015
lhumerus -22.2326 -28.0597 97.5153
lradius 35.7068
lwrist -1.18683
lhand -11.4538 28.3362
lfingers 7.12502
lthumb 14.5833 57.8035
rfemur -39.4602 -14.0492 14.0651
rtibia 34.3158
rfoot -27.4895 -31.9523
rtoes 28.3237
lfemur -28.0958 8.91005 -21.5497
ltibia 30.3494
lfoot -13.8782 8.5685
ltoes -21.0474
2305
root -1.23279 17.7091 -6.30938 -343.659 -6.75331 362.475
lowerback 16.4214 -0.76547 1.12497
upperback 5.28905 -0.72336 2.4541
thorax -3.54908 -0.373667 2.0871
lowerneck -21.8974 1.79559 -6.52091
upperneck 11.11 4.42157 -0.509626
head 6.81579 1.78129 1.39206
rclavicle -1.11319e-014 -1.59028e-014
rhumerus -24.0044 30.4496 -90.7518
rradius 45.1242
rwrist 35.3162
rhand -14.3295 -12.0399
rfingers 7.12502
rthumb 11.8114 -41.6868
lclavicle -1.11319e-014 -1.59028e-014
lhumerus -21.7458 -28.6968 97.0307
lradius 35.0309
lwrist -2.2739
lhand -10.1066 27.5706
lfingers 7.12502
lthumb 15.881 56.9394
rfemur -38.8208 -14.5302 13.775
rtibia 34.8515
rfoot -27.0333 -32.1775
rtoes 28.4645
lfemur -27.6249 8.60576 -21.575
ltibia 30.7589
lfoot -14.1855 8.14807
ltoes -20.5099
2306
root -1.17638 17.6969 -6.29093 -344.353 -5.93693 362.502
lowerback 16.0677 -0.709883 0.993166
upperback 5.2436 -0.681361 2.36048
thorax -3.41014 -0.351902 2.04865
lowerneck -22.2379 1.55179 -6.76387
upperneck 11.089 4.15554 -0.284945
head 6.86108 1.66261 1.47738
rclavicle -8.34896e-015 -8.74653e-015
rhumerus -23.7059 31.2022 -90.6265
rradius 43.9556
rwrist 34.448
rhand -14.392 -11.8036
rfingers 7.12502
rthumb 11.7511 -41.454
lclavicle -8.34896e-015 -8.74653e-015
lhumerus -21.1432 -29.4203 96.4531
lradius 34.4716
lwrist -3.36727
lhand -8.59528 26.4595
lfingers 7.12502
lthumb 17.336 55.7063
rfemur -37.985 -14.6857 13.3114
rtibia 35.3321
rfoot -27.2259 -32.3342
rtoes 29.3736
lfemur -27.1831 8.27056 -21.5929
ltibia 31.2056
lfoot -14.4279 7.75366
ltoes -22.2974
2307
root -1.12327 17.6883 -6.26935 -345.102 -5.11133 362.45
lowerback 15.7424 -0.636314 0.909214
upperback 5.26346 -0.607995 2.28058
thorax -3.21818 -0.315151 1.99231
lowerneck -22.7529 1.27398 -7.09256
upperneck 11.159 3.86225 0.102389
head 6.9606 1.53963 1.62964
rclavicle 1.98785e-015 -1.90833e-014
rhumerus -23.3131 31.9105 -90.3934
rradius 42.8535
rwrist 33.6175
rhand -14.0205 -11.351
rfingers 7.12502
rthumb 12.1094 -40.9806
lclavicle 1.98785e-015 -1.90833e-014
lhumerus -20.406 -30.0589 95.7635
lradius 34.0279
lwrist -4.34145
lhand -7.13746 25.5003
lfingers 7.12502
lthumb 18.7386 54.6178
rfemur -37.0345 -14.7304 12.907
rtibia 35.7559
rfoot -27.087 -32.6168
rtoes 29.774
lfemur -26.6531 8.0218 -21.5171
ltibia 31.6827
lfoot -14.7637 7.19256
ltoes -22.9286
